<?xml version="1.0" standalone="no"?>
<!DOCTYPE svg PUBLIC "-//W3C//DTD SVG 20010904//EN"
 "http://www.w3.org/TR/2001/REC-SVG-20010904/DTD/svg10.dtd">
<svg version="1.0" xmlns="http://www.w3.org/2000/svg"
 width="48.000000pt" height="48.000000pt" viewBox="0 0 48.000000 48.000000"
 preserveAspectRatio="xMidYMid meet">

<g transform="translate(0.000000,48.000000) scale(0.100000,-0.100000)"
fill="#000000" stroke="none">
<path d="M0 240 l0 -220 240 0 240 0 0 220 0 220 -240 0 -240 0 0 -220z m193
53 l55 -106 53 104 c41 79 59 104 74 104 19 0 20 -8 23 -153 2 -143 1 -153
-15 -150 -16 3 -19 18 -23 117 l-5 113 -45 -91 c-31 -64 -49 -91 -62 -91 -12
0 -32 28 -65 93 l-48 92 -3 -117 c-2 -96 -5 -118 -17 -118 -13 0 -15 25 -15
155 0 146 1 155 19 155 14 0 33 -27 74 -107z"/>
</g>
</svg>
